<svg width="120" height="30" viewBox="0 0 120 30" fill="none" xmlns="http://www.w3.org/2000/svg">
<path d="M1.088 29L0.62 28.424L1.088 27.776C1.688 26.984 2.108 26.156 2.348 25.292C2.588 24.404 2.708 23.228 2.708 21.764V10.388C2.708 8.924 2.588 7.76 2.348 6.896C2.108 6.008 1.688 5.168 1.088 4.376L0.62 3.728L1.088 3.152H11.744C13.808 3.152 15.176 2.9 15.848 2.396L16.496 1.928L17.072 2.396V8.804L15.848 9.236L15.632 8.408C15.416 7.544 15.164 6.884 14.876 6.428C14.588 5.972 14.204 5.66 13.724 5.492C13.244 5.3 12.572 5.204 11.708 5.204H8.576C7.64 5.204 7.016 5.384 6.704 5.744C6.416 6.08 6.272 6.812 6.272 7.94V15.212H10.484C11.036 15.212 11.528 15.092 11.96 14.852C12.416 14.612 12.872 14.18 13.328 13.556L13.616 13.16L14.336 13.556V19.712L13.112 20.144L12.896 19.316C12.68 18.476 12.284 17.924 11.708 17.66C11.156 17.396 10.244 17.264 8.972 17.264H6.272V24.212C6.272 25.316 6.428 26.084 6.74 26.516C7.076 26.948 7.688 27.296 8.576 27.56L9.404 27.776L8.972 29H1.088ZM20.8835 29L20.4875 27.884L21.2435 27.704C21.8675 27.56 22.2755 27.296 22.4675 26.912C22.6595 26.528 22.7555 25.892 22.7555 25.004V14.888C22.7555 14.36 22.5155 14.096 22.0355 14.096H20.4515L20.1275 13.16C20.8235 12.536 21.6155 12.02 22.5035 11.612C23.4155 11.204 24.2075 11 24.8795 11C25.2155 11 25.4915 11.108 25.7075 11.324C25.9235 11.54 26.0315 11.816 26.0315 12.152V16.004H26.2475C26.6555 14.396 27.2795 13.1 28.1195 12.116C28.9835 11.132 29.9195 10.64 30.9275 10.64C31.9115 10.64 32.7395 10.964 33.4115 11.612C34.0835 12.26 34.4195 13.16 34.4195 14.312C34.4195 15.224 34.0835 15.992 33.4115 16.616C32.7635 17.24 31.9235 17.552 30.8915 17.552C30.4355 17.552 30.2075 17.42 30.2075 17.156C30.2075 17.036 30.2915 16.868 30.4595 16.652C30.6275 16.436 30.7955 16.16 30.9635 15.824C31.1315 15.488 31.2155 15.104 31.2155 14.672C31.2155 14.24 31.0955 13.904 30.8555 13.664C30.6395 13.4 30.3635 13.268 30.0275 13.268C29.5235 13.268 28.9595 13.592 28.3355 14.24C27.7115 14.864 27.1715 15.92 26.7155 17.408C26.2595 18.872 26.0315 20.864 26.0315 23.384C26.0315 24.464 26.1155 25.34 26.2835 26.012C26.4515 26.66 26.7515 27.284 27.1835 27.884L27.6155 28.46L27.1835 29H20.8835ZM44.8063 29.504C43.0063 29.504 41.4463 29.12 40.1263 28.352C38.8303 27.584 37.8223 26.492 37.1023 25.076C36.3823 23.66 36.0223 21.992 36.0223 20.072C36.0223 18.128 36.3823 16.46 37.1023 15.068C37.8223 13.652 38.8303 12.56 40.1263 11.792C41.4463 11.024 43.0063 10.64 44.8063 10.64C46.6063 10.64 48.1543 11.024 49.4503 11.792C50.7703 12.56 51.7903 13.652 52.5103 15.068C53.2303 16.46 53.5903 18.128 53.5903 20.072C53.5903 21.992 53.2303 23.66 52.5103 25.076C51.7903 26.492 50.7703 27.584 49.4503 28.352C48.1543 29.12 46.6063 29.504 44.8063 29.504ZM44.6983 27.56C46.1863 27.56 47.4103 26.888 48.3703 25.544C49.3303 24.176 49.8103 22.388 49.8103 20.18C49.8103 19.46 49.7263 18.656 49.5583 17.768C49.4143 16.88 49.1503 16.04 48.7663 15.248C48.4063 14.456 47.9143 13.808 47.2903 13.304C46.6663 12.776 45.8743 12.512 44.9143 12.512C43.9063 12.512 43.0063 12.836 42.2143 13.484C41.4463 14.108 40.8463 14.996 40.4143 16.148C39.9823 17.276 39.7663 18.596 39.7663 20.108C39.7663 22.364 40.2103 24.176 41.0983 25.544C41.9863 26.888 43.1863 27.56 44.6983 27.56ZM73.6468 29.504C72.6628 29.504 71.9548 29.204 71.5228 28.604C71.0908 28.004 70.8748 27.032 70.8748 25.688V17.12C70.8748 14.672 69.8428 13.448 67.7788 13.448C66.7468 13.448 65.8348 13.856 65.0428 14.672C64.2748 15.488 63.6628 16.64 63.2068 18.128C62.7748 19.592 62.5588 21.296 62.5588 23.24C62.5588 24.368 62.6428 25.268 62.8108 25.94C62.9788 26.612 63.2788 27.26 63.7108 27.884L64.1428 28.46L63.7108 29H57.4108L57.0148 27.884L57.7708 27.704C58.3948 27.56 58.8028 27.296 58.9948 26.912C59.1868 26.528 59.2828 25.892 59.2828 25.004V14.888C59.2828 14.36 59.0428 14.096 58.5628 14.096H56.9788L56.6548 13.16C57.3508 12.536 58.1428 12.02 59.0308 11.612C59.9428 11.204 60.7348 11 61.4068 11C61.7428 11 62.0188 11.108 62.2348 11.324C62.4508 11.54 62.5588 11.816 62.5588 12.152V16.004C62.9668 14.948 63.5188 14.024 64.2148 13.232C64.9348 12.416 65.7268 11.78 66.5908 11.324C67.4788 10.868 68.3788 10.64 69.2908 10.64C70.9708 10.64 72.1948 11.156 72.9628 12.188C73.7308 13.22 74.1148 14.864 74.1148 17.12V25.832C74.1148 26.648 74.4748 27.056 75.1948 27.056C75.7468 27.056 76.3468 26.804 76.9948 26.3L77.6788 27.236C77.0548 27.932 76.3828 28.484 75.6628 28.892C74.9428 29.3 74.2708 29.504 73.6468 29.504ZM86.4468 29.504C85.3188 29.504 84.2628 29.18 83.2788 28.532C82.2948 27.884 81.5028 26.912 80.9028 25.616C80.3028 24.32 80.0028 22.7 80.0028 20.756C80.0028 18.668 80.3748 16.868 81.1188 15.356C81.8868 13.844 82.9668 12.68 84.3588 11.864C85.7748 11.048 87.4308 10.64 89.3268 10.64C90.5748 10.64 91.7148 10.796 92.7468 11.108V4.736C92.7468 4.208 92.5068 3.944 92.0268 3.944H90.4428L90.1188 3.008C90.8148 2.384 91.6068 1.868 92.4948 1.46C93.4068 1.052 94.1988 0.847998 94.8708 0.847998C95.2068 0.847998 95.4828 0.955998 95.6988 1.172C95.9148 1.388 96.0228 1.664 96.0228 2V25.832C96.0228 26.576 96.3828 26.948 97.1028 26.948C97.7028 26.948 98.3028 26.732 98.9028 26.3L99.5868 27.236C98.9628 27.932 98.2908 28.484 97.5708 28.892C96.8748 29.3 96.2148 29.504 95.5908 29.504C94.6068 29.504 93.8988 29.204 93.4668 28.604C93.0348 28.004 92.8188 27.032 92.8188 25.688C91.7868 27.152 90.7428 28.16 89.6868 28.712C88.6548 29.24 87.5748 29.504 86.4468 29.504ZM87.8868 26.732C88.7988 26.732 89.6748 26.468 90.5148 25.94C91.3788 25.412 92.1468 24.584 92.8188 23.456V13.736C91.7148 12.992 90.5388 12.62 89.2908 12.62C87.5388 12.62 86.1828 13.28 85.2228 14.6C84.2628 15.896 83.7828 17.72 83.7828 20.072C83.7828 21.704 83.9748 23.012 84.3588 23.996C84.7428 24.956 85.2468 25.652 85.8708 26.084C86.5188 26.516 87.1908 26.732 87.8868 26.732ZM110.513 29.504C108.713 29.504 107.153 29.12 105.833 28.352C104.537 27.584 103.529 26.492 102.809 25.076C102.089 23.66 101.729 21.992 101.729 20.072C101.729 18.128 102.089 16.46 102.809 15.068C103.529 13.652 104.537 12.56 105.833 11.792C107.153 11.024 108.713 10.64 110.513 10.64C112.313 10.64 113.861 11.024 115.157 11.792C116.477 12.56 117.497 13.652 118.217 15.068C118.937 16.46 119.297 18.128 119.297 20.072C119.297 21.992 118.937 23.66 118.217 25.076C117.497 26.492 116.477 27.584 115.157 28.352C113.861 29.12 112.313 29.504 110.513 29.504ZM110.405 27.56C111.893 27.56 113.117 26.888 114.077 25.544C115.037 24.176 115.517 22.388 115.517 20.18C115.517 19.46 115.433 18.656 115.265 17.768C115.121 16.88 114.857 16.04 114.473 15.248C114.113 14.456 113.621 13.808 112.997 13.304C112.373 12.776 111.581 12.512 110.621 12.512C109.613 12.512 108.713 12.836 107.921 13.484C107.153 14.108 106.553 14.996 106.121 16.148C105.689 17.276 105.473 18.596 105.473 20.108C105.473 22.364 105.917 24.176 106.805 25.544C107.693 26.888 108.893 27.56 110.405 27.56Z" fill="black"/>
</svg>
